<svg width="351" height="78" viewBox="0 0 351 78" fill="none" xmlns="http://www.w3.org/2000/svg">
<path d="M131.884 32.5859H122.863C122.698 31.4188 122.362 30.3821 121.854 29.4759C121.346 28.5559 120.693 27.7732 119.897 27.1278C119.101 26.4825 118.181 25.9882 117.137 25.6449C116.107 25.3016 114.988 25.13 113.78 25.13C111.597 25.13 109.695 25.6723 108.075 26.7571C106.454 27.8281 105.198 29.3935 104.305 31.4531C103.413 33.4991 102.967 35.9844 102.967 38.9091C102.967 41.9162 103.413 44.4427 104.305 46.4886C105.212 48.5346 106.475 50.0793 108.095 51.1229C109.715 52.1664 111.59 52.6882 113.718 52.6882C114.913 52.6882 116.018 52.5303 117.034 52.2145C118.064 51.8987 118.977 51.4387 119.773 50.8345C120.57 50.2166 121.229 49.4683 121.751 48.5895C122.286 47.7107 122.657 46.7083 122.863 45.5824L131.884 45.6236C131.651 47.5597 131.067 49.4271 130.134 51.2259C129.214 53.0109 127.971 54.6106 126.406 56.0249C124.854 57.4254 123 58.5376 120.844 59.3615C118.702 60.1716 116.279 60.5767 113.574 60.5767C109.812 60.5767 106.447 59.7254 103.482 58.0227C100.529 56.3201 98.1951 53.8554 96.4787 50.6286C94.776 47.4018 93.9247 43.4953 93.9247 38.9091C93.9247 34.3092 94.7898 30.3958 96.5199 27.169C98.25 23.9422 100.598 21.4844 103.564 19.7955C106.53 18.0928 109.866 17.2415 113.574 17.2415C116.018 17.2415 118.284 17.5848 120.371 18.2713C122.472 18.9579 124.332 19.9602 125.952 21.2784C127.573 22.5829 128.891 24.1825 129.907 26.0774C130.937 27.9723 131.596 30.1418 131.884 32.5859ZM152.409 60.6179C149.209 60.6179 146.443 59.9382 144.108 58.5788C141.788 57.2057 139.996 55.2971 138.733 52.853C137.469 50.3951 136.838 47.5459 136.838 44.3054C136.838 41.0374 137.469 38.1813 138.733 35.7372C139.996 33.2794 141.788 31.3707 144.108 30.0114C146.443 28.6383 149.209 27.9517 152.409 27.9517C155.608 27.9517 158.368 28.6383 160.689 30.0114C163.023 31.3707 164.822 33.2794 166.085 35.7372C167.348 38.1813 167.98 41.0374 167.98 44.3054C167.98 47.5459 167.348 50.3951 166.085 52.853C164.822 55.2971 163.023 57.2057 160.689 58.5788C158.368 59.9382 155.608 60.6179 152.409 60.6179ZM152.45 53.821C153.905 53.821 155.121 53.4091 156.096 52.5852C157.07 51.7476 157.805 50.608 158.299 49.1662C158.807 47.7244 159.061 46.0836 159.061 44.2436C159.061 42.4036 158.807 40.7628 158.299 39.321C157.805 37.8793 157.07 36.7396 156.096 35.902C155.121 35.0644 153.905 34.6456 152.45 34.6456C150.981 34.6456 149.745 35.0644 148.743 35.902C147.754 36.7396 147.006 37.8793 146.498 39.321C146.003 40.7628 145.756 42.4036 145.756 44.2436C145.756 46.0836 146.003 47.7244 146.498 49.1662C147.006 50.608 147.754 51.7476 148.743 52.5852C149.745 53.4091 150.981 53.821 152.45 53.821ZM182.459 41.7102V60H173.685V28.3636H182.047V33.9453H182.418C183.118 32.1053 184.292 30.6499 185.94 29.5788C187.588 28.4941 189.586 27.9517 191.934 27.9517C194.131 27.9517 196.046 28.4323 197.68 29.3935C199.314 30.3546 200.584 31.7277 201.49 33.5128C202.397 35.2841 202.85 37.3987 202.85 39.8565V60H194.076V41.4219C194.089 39.4858 193.595 37.9754 192.593 36.8906C191.59 35.7921 190.21 35.2429 188.453 35.2429C187.272 35.2429 186.228 35.4969 185.322 36.005C184.43 36.513 183.729 37.2545 183.221 38.2294C182.727 39.1906 182.473 40.3509 182.459 41.7102ZM218.539 41.7102V60H209.765V28.3636H218.127V33.9453H218.498C219.198 32.1053 220.372 30.6499 222.02 29.5788C223.668 28.4941 225.666 27.9517 228.014 27.9517C230.211 27.9517 232.126 28.4323 233.76 29.3935C235.394 30.3546 236.664 31.7277 237.57 33.5128C238.477 35.2841 238.93 37.3987 238.93 39.8565V60H230.156V41.4219C230.169 39.4858 229.675 37.9754 228.673 36.8906C227.67 35.7921 226.29 35.2429 224.533 35.2429C223.352 35.2429 222.308 35.4969 221.402 36.005C220.51 36.513 219.809 37.2545 219.301 38.2294C218.807 39.1906 218.553 40.3509 218.539 41.7102ZM260.263 60.6179C257.009 60.6179 254.207 59.9588 251.859 58.6406C249.525 57.3087 247.726 55.4276 246.463 52.9972C245.2 50.553 244.568 47.6626 244.568 44.326C244.568 41.0717 245.2 38.2157 246.463 35.7578C247.726 33.3 249.504 31.3845 251.798 30.0114C254.104 28.6383 256.809 27.9517 259.913 27.9517C262 27.9517 263.943 28.2881 265.741 28.9609C267.554 29.62 269.133 30.6155 270.479 31.9474C271.838 33.2794 272.895 34.9545 273.651 36.973C274.406 38.9777 274.783 41.3258 274.783 44.017V46.4268H248.07V40.9893H266.524C266.524 39.7261 266.25 38.607 265.7 37.6321C265.151 36.6572 264.389 35.8951 263.414 35.3459C262.453 34.7829 261.334 34.5014 260.057 34.5014C258.725 34.5014 257.544 34.8104 256.514 35.4283C255.498 36.0324 254.702 36.8494 254.125 37.8793C253.548 38.8954 253.253 40.0282 253.239 41.2777V46.4474C253.239 48.0128 253.528 49.3653 254.104 50.505C254.695 51.6446 255.526 52.5234 256.597 53.1413C257.668 53.7592 258.938 54.0682 260.407 54.0682C261.382 54.0682 262.274 53.9309 263.085 53.6562C263.895 53.3816 264.588 52.9697 265.165 52.4205C265.741 51.8712 266.181 51.1984 266.483 50.402L274.598 50.9375C274.186 52.8873 273.342 54.59 272.065 56.0455C270.801 57.4872 269.167 58.6132 267.163 59.4233C265.172 60.2197 262.872 60.6179 260.263 60.6179ZM294.803 60.6179C291.563 60.6179 288.775 59.9313 286.441 58.5582C284.121 57.1714 282.335 55.2491 281.086 52.7912C279.85 50.3333 279.232 47.5047 279.232 44.3054C279.232 41.0649 279.857 38.2225 281.107 35.7784C282.37 33.3205 284.162 31.4051 286.482 30.032C288.803 28.6451 291.563 27.9517 294.762 27.9517C297.522 27.9517 299.939 28.4529 302.012 29.4553C304.085 30.4576 305.726 31.8651 306.935 33.6776C308.143 35.4901 308.809 37.6184 308.933 40.0625H300.653C300.419 38.4834 299.801 37.2133 298.799 36.2521C297.81 35.2772 296.513 34.7898 294.906 34.7898C293.547 34.7898 292.359 35.1605 291.343 35.902C290.341 36.6297 289.558 37.6939 288.995 39.0945C288.432 40.495 288.151 42.1908 288.151 44.1818C288.151 46.2003 288.425 47.9167 288.974 49.331C289.537 50.7453 290.327 51.8232 291.343 52.5646C292.359 53.3061 293.547 53.6768 294.906 53.6768C295.909 53.6768 296.808 53.4709 297.604 53.0589C298.415 52.647 299.08 52.0497 299.602 51.267C300.138 50.4706 300.488 49.5163 300.653 48.4041H308.933C308.795 50.8208 308.136 52.9491 306.955 54.7891C305.788 56.6153 304.175 58.0433 302.115 59.0732C300.055 60.103 297.618 60.6179 294.803 60.6179ZM331.378 28.3636V34.9545H312.326V28.3636H331.378ZM316.651 20.7841H325.425V50.2784C325.425 51.0885 325.549 51.7202 325.796 52.1733C326.043 52.6127 326.386 52.9216 326.826 53.1001C327.279 53.2786 327.801 53.3679 328.391 53.3679C328.803 53.3679 329.215 53.3336 329.627 53.2649C330.039 53.1825 330.355 53.1207 330.574 53.0795L331.954 59.6087C331.515 59.746 330.897 59.9039 330.101 60.0824C329.304 60.2746 328.336 60.3913 327.197 60.4325C325.082 60.5149 323.228 60.2334 321.635 59.5881C320.056 58.9427 318.827 57.9403 317.949 56.581C317.07 55.2216 316.637 53.5052 316.651 51.4318V20.7841ZM342.222 60.5355C340.862 60.5355 339.695 60.0549 338.72 59.0938C337.759 58.1188 337.279 56.9517 337.279 55.5923C337.279 54.2467 337.759 53.0933 338.72 52.1321C339.695 51.1709 340.862 50.6903 342.222 50.6903C343.54 50.6903 344.693 51.1709 345.682 52.1321C346.671 53.0933 347.165 54.2467 347.165 55.5923C347.165 56.4986 346.932 57.3293 346.465 58.0845C346.012 58.826 345.414 59.4233 344.673 59.8764C343.931 60.3158 343.114 60.5355 342.222 60.5355Z" fill="white"/>
<path d="M52.6763 73.4297H43.5417C42.2794 73.4297 41.258 72.4076 41.258 71.1445C41.258 69.8814 42.2794 68.8594 43.5417 68.8594H52.6763C56.4541 68.8594 59.5272 65.7842 59.5272 62.0039V52.8633C59.5272 51.6002 60.5487 50.5781 61.8109 50.5781C63.0732 50.5781 64.0946 51.6002 64.0946 52.8633V62.0039C64.0946 68.3038 58.972 73.4297 52.6763 73.4297Z" fill="#EEEEEE"/>
<path d="M73.2292 34.2773V43.418L68.6619 48.8717V34.2773C68.6619 17.9155 55.3255 4.57031 38.9744 4.57031C22.6233 4.57031 9.28687 17.9155 9.28687 34.2773V49.6031L4.71956 43.418V34.2773C4.71956 15.3562 20.0657 0 38.9744 0C57.883 0 73.2292 15.3562 73.2292 34.2773Z" fill="#EEEEEE"/>
<path d="M73.2292 34.2773V43.418L68.6619 48.8717V34.2773C68.6619 17.9155 55.3255 4.57031 38.9744 4.57031V0C57.883 0 73.2292 15.3563 73.2292 34.2773Z" fill="#EEEEEE"/>
<path d="M16.1378 59.7188H11.5705C7.79275 59.7188 4.71956 56.6435 4.71956 52.8633V43.418C4.71956 39.6377 7.79275 36.5625 11.5705 36.5625H16.1378C17.4001 36.5625 18.4215 37.5846 18.4215 38.8477V57.4336C18.4215 58.6967 17.4001 59.7188 16.1378 59.7188Z" fill="#BE2659"/>
<path d="M66.3782 59.7188H61.8109C60.5487 59.7188 59.5273 58.6967 59.5273 57.4336V38.8477C59.5273 37.5846 60.5487 36.5625 61.8109 36.5625H66.3782C70.156 36.5625 73.2292 39.6377 73.2292 43.418V52.8633C73.2292 56.6435 70.156 59.7188 66.3782 59.7188Z" fill="#BE2659"/>
<path d="M38.9744 64.2891C35.1833 64.2891 32.1234 67.351 32.1234 71.1445C32.1234 74.9377 35.1833 78 38.9744 78C42.7654 78 45.8253 74.9377 45.8253 71.1445C45.8253 67.351 42.7654 64.2891 38.9744 64.2891Z" fill="#787780"/>
<path d="M45.8253 71.1445C45.8253 74.9377 42.7654 78 38.9744 78V64.2891C42.7654 64.2891 45.8253 67.351 45.8253 71.1445ZM20.7051 64.2891C16.9274 64.2891 13.8542 61.2139 13.8542 57.4336V38.8477C13.8542 35.0674 16.9274 31.9922 20.7051 31.9922C24.4829 31.9922 27.5561 35.0674 27.5561 38.8477V57.4336C27.5561 61.2139 24.4829 64.2891 20.7051 64.2891Z" fill="white"/>
<path d="M57.2436 64.2891C53.4658 64.2891 50.3926 61.2139 50.3926 57.4336V38.8477C50.3926 35.0674 53.4658 31.9922 57.2436 31.9922C61.0214 31.9922 64.0946 35.0674 64.0946 38.8477V57.4336C64.0946 61.2139 61.0214 64.2891 57.2436 64.2891Z" fill="white"/>
</svg>
